<svg width="32" height="36" viewBox="0 0 32 36" fill="none" xmlns="http://www.w3.org/2000/svg">
<path d="M21.497 11.5902C22.1013 9.9931 22.4035 8.5038 22.4035 7.1225C22.4035 4.5757 21.3675 3.3022 19.2955 3.3022C18.2163 3.3022 17.2235 3.7987 16.317 4.7915C15.4537 5.7412 15.022 6.8203 15.022 8.029C15.022 8.8923 15.3673 9.6693 16.058 10.36C17.0508 11.3097 18.8207 12.5615 21.3675 14.1155C23.9143 15.6695 25.6626 17.094 26.6123 18.389C27.6051 19.6408 28.1015 21.1517 28.1015 22.9215C28.1015 24.6482 27.6698 26.3101 26.8065 27.9072C25.9863 29.5044 24.8208 30.8642 23.31 31.9865C20.0725 34.4038 15.8638 35.6125 10.6838 35.6125C7.8779 35.6125 5.3958 34.8787 3.2375 33.411C1.0792 31.9865 0 30.4325 0 28.749C0 27.0655 0.6043 25.7273 1.813 24.7345C3.0648 23.7417 4.5973 23.2452 6.4103 23.2452C8.2233 23.2452 9.6909 23.5906 10.8133 24.2812C10.2521 25.7057 9.9715 26.8928 9.9715 27.8425C9.9715 30.6915 11.1802 32.116 13.5975 32.116C14.6335 32.116 15.4968 31.7922 16.1875 31.1447C16.8782 30.4972 17.2235 29.6123 17.2235 28.49C17.2235 26.2885 15.3673 24.0222 11.655 21.6912C8.6333 19.7056 6.7772 18.3242 6.0865 17.5472C4.921 16.1659 4.3383 14.6119 4.3383 12.8852C4.3383 11.1586 4.7483 9.4751 5.5685 7.8347C6.3887 6.1944 7.5542 4.7915 9.065 3.626C12.2162 1.2087 16.5328 0 22.015 0C24.8208 0 27.0439 0.561199 28.6843 1.6835C30.3678 2.8058 31.2095 4.3167 31.2095 6.216C31.2095 8.1153 30.6268 9.6046 29.4613 10.6837C28.3389 11.7629 26.7418 12.3025 24.6698 12.3025C23.2453 12.3025 22.1877 12.0651 21.497 11.5902Z" fill="url(#paint0_linear)"/>
<defs>
<linearGradient id="paint0_linear" x1="35.4064" y1="-12.7777" x2="16.8847" y2="50.273" gradientUnits="userSpaceOnUse">
<stop offset="0.171875" stop-color="#0097A7"/>
<stop offset="1" stop-opacity="0"/>
</linearGradient>
</defs>
</svg>
